<mxfile host="Electron" modified="2024-08-26T08:16:17.391Z" agent="Mozilla/5.0 (Windows NT 10.0; Win64; x64) AppleWebKit/537.36 (KHTML, like Gecko) draw.io/22.1.16 Chrome/120.0.6099.109 Electron/28.1.0 Safari/537.36" etag="YHjM-vVEF3VttNWp__mJ" version="22.1.16" type="device">
  <diagram name="Page-1" id="mhcuc_TRiJDTC5OKFYOF">
    <mxGraphModel dx="1098" dy="760" grid="1" gridSize="10" guides="1" tooltips="1" connect="1" arrows="1" fold="1" page="1" pageScale="1" pageWidth="700" pageHeight="180" math="0" shadow="0">
      <root>
        <mxCell id="0" />
        <mxCell id="1" parent="0" />
        <mxCell id="oa93Lh7E8FzpX1taP8Wo-1" value="Machine de Tuing&amp;nbsp;" style="rounded=1;whiteSpace=wrap;html=1;align=left;verticalAlign=bottom;spacingLeft=17;spacingBottom=6;fillColor=#dae8fc;strokeColor=default;opacity=50;" vertex="1" parent="1">
          <mxGeometry x="190" y="190" width="320" height="160" as="geometry" />
        </mxCell>
        <mxCell id="oa93Lh7E8FzpX1taP8Wo-2" value="Automate Ã  pile" style="rounded=1;whiteSpace=wrap;html=1;align=left;verticalAlign=bottom;spacingLeft=17;spacingBottom=6;fillColor=#e1d5e7;strokeColor=default;opacity=50;" vertex="1" parent="1">
          <mxGeometry x="210" y="200" width="290" height="120" as="geometry" />
        </mxCell>
        <mxCell id="oa93Lh7E8FzpX1taP8Wo-3" value="Automate fini" style="rounded=1;whiteSpace=wrap;html=1;align=left;verticalAlign=bottom;spacingLeft=17;spacingBottom=6;fillColor=#f8cecc;strokeColor=default;opacity=50;" vertex="1" parent="1">
          <mxGeometry x="230" y="210" width="260" height="80" as="geometry" />
        </mxCell>
        <mxCell id="oa93Lh7E8FzpX1taP8Wo-4" value="Logique combinatoire" style="rounded=1;whiteSpace=wrap;html=1;align=left;verticalAlign=bottom;spacingLeft=12;spacingBottom=6;fillColor=#fff2cc;strokeColor=default;opacity=50;" vertex="1" parent="1">
          <mxGeometry x="250" y="220" width="230" height="40" as="geometry" />
        </mxCell>
      </root>
    </mxGraphModel>
  </diagram>
</mxfile>
